PathFileType	4	(X/Y/Z)	2014001\dynamic\2014001_C3_01.trc
DataRate	CameraRate	NumFrames	NumMarkers	Units	OrigDataRate	OrigDataStartFrame	OrigNumFrames
100.000000	100.000000	4	52	mm	100.000000	144	192
Frame#	Time	L_IAS			L_IPS			R_IPS			R_IAS			L_FTC			L_FLE			L_FME			L_FAX			L_TTC			L_FAL			L_TAM			L_FCC			L_FM1			L_FM2			L_FM5			R_FTC			R_FLE			R_FME			R_FAX			R_TTC			R_FAL			R_TAM			R_FCC			R_FM1			R_FM2			R_FM5			CV7			TV10			SXS			SJN			L_SIA			L_SRS			L_SAA			L_SAE			L_HLE			L_HME			L_UOA			L_RSP			L_UHE			L_HM2			L_HM5			R_SIA			R_SRS			R_SAA			R_SAE			R_HLE			R_HME			R_UOA			R_RSP			R_UHE			R_HM2			R_HM5			
		X1	Y1	Z1	X2	Y2	Z2	X3	Y3	Z3	X4	Y4	Z4	X5	Y5	Z5	X6	Y6	Z6	X7	Y7	Z7	X8	Y8	Z8	X9	Y9	Z9	X10	Y10	Z10	X11	Y11	Z11	X12	Y12	Z12	X13	Y13	Z13	X14	Y14	Z14	X15	Y15	Z15	X16	Y16	Z16	X17	Y17	Z17	X18	Y18	Z18	X19	Y19	Z19	X20	Y20	Z20	X21	Y21	Z21	X22	Y22	Z22	X23	Y23	Z23	X24	Y24	Z24	X25	Y25	Z25	X26	Y26	Z26	X27	Y27	Z27	X28	Y28	Z28	X29	Y29	Z29	X30	Y30	Z30	X31	Y31	Z31	X32	Y32	Z32	X33	Y33	Z33	X34	Y34	Z34	X35	Y35	Z35	X36	Y36	Z36	X37	Y37	Z37	X38	Y38	Z38	X39	Y39	Z39	X40	Y40	Z40	X41	Y41	Z41	X42	Y42	Z42	X43	Y43	Z43	X44	Y44	Z44	X45	Y45	Z45	X46	Y46	Z46	X47	Y47	Z47	X48	Y48	Z48	X49	Y49	Z49	X50	Y50	Z50	X51	Y51	Z51	X52	Y52	Z52	

145	1.44	363.8654785156251	870.5905151367192	1449.173950195313	300.082733154297	901.4729003906255	1263.427978515625	211.5354003906251	895.1218872070317	1257.707641601563	124.1269149780274	858.0592651367192	1428.55810546875	426.8417968750002	784.1644897460942	1386.337158203125	377.3102111816407	439.4092712402346	1487.043701171875	259.8694458007814	441.5545654296877	1500.232543945313	379.9410705566407	375.6105346679689	1473.337524414063	327.3669433593751	361.8452148437501	1531.515014648438	327.2522277832032	62.14699935913089	1435.881103515625	238.1919250488282	73.0856857299805	1457.024047851563	282.1646423339845	23.0182056427002	1390.71435546875	255.6224975585939	25.40672302246095	1572.104248046876	318.6850585937501	36.36853408813478	1580.301635742188	364.0748596191407	25.60756111145021	1524.459350585938	78.38446807861331	765.4461059570315	1320.984008789063	76.81701660156253	426.5344238281252	1288.76171875	192.0260314941407	390.2588500976565	1322.223754882813	73.327507019043	388.1195068359377	1237.818725585938	108.9267501831055	332.9614868164064	1286.62109375	126.4260940551758	209.2059020996095	983.397338867188	202.2271575927736	179.6927795410157	1031.337158203125	192.1055145263673	219.7365112304689	942.650268554688	195.5752868652345	59.61791610717776	1012.085144042969	136.6041412353516	62.41067886352542	1010.357299804688	100.118263244629	95.43259429931643	969.655395507813	249.2500915527345	1362.56494140625	1283.2666015625	249.5242309570314	1128.376953125	1226.723510742188	262.5811462402345	1141.350708007813	1463.034545898438	260.9511108398439	1301.857421875	1412.206298828125	337.9919738769532	1165.84521484375	1216.265747070313	333.3645935058595	1298.457153320313	1235.760986328125	446.420349121094	1292.89990234375	1300.519409179688	435.8545837402346	1304.700073242188	1343.220336914063	503.498229980469	1019.095764160157	1305.322143554688	426.525329589844	989.4087524414067	1281.428833007813	475.1986083984377	991.0333862304692	1272.464599609375	476.7623291015627	780.533081054688	1374.5126953125	540.7493896484377	785.4299316406255	1324.426391601563	486.5665588378909	693.5607910156252	1390.531005859375	545.0242309570315	709.5042724609377	1305.965942382813	131.5168609619141	1172.162109375	1230.879760742188	157.4267120361329	1295.106811523438	1250.87255859375	60.02521896362308	1296.18896484375	1335.690063476563	78.31959533691409	1302.82177734375	1383.2138671875	5.11952590942383	997.5864257812505	1380.326049804688	77.80604553222659	980.3314819335942	1340.522827148438	32.31996917724611	972.406860351563	1346.154663085938	52.02950286865237	802.137573242188	1493.395629882813	-17.89132881164551	792.7961425781255	1450.350341796875	42.73336410522462	717.1958618164065	1533.121337890625	-19.58522415161134	714.670349121094	1451.347900390625	
146	1.45	365.0032348632814	871.6269531250005	1460.055419921875	302.0803527832032	903.0717163085942	1274.418579101563	213.5688323974611	896.685424804688	1267.96826171875	125.2498245239258	860.0850219726567	1438.579833984375	428.0427246093752	785.2594604492192	1397.12841796875	377.7792358398439	438.8016052246096	1491.754028320313	260.2716674804689	440.8441162109377	1504.500610351563	380.3056030273439	375.0855712890626	1477.261840820313	327.5212707519532	360.7642517089845	1535.034057617188	326.9955139160157	61.98909759521487	1435.99853515625	237.9200439453126	72.97363281250003	1456.960693359375	282.0554504394532	23.0327491760254	1390.64208984375	255.6921997070314	25.50277900695802	1572.031494140626	318.7052001953126	36.54951477050783	1580.225952148438	363.9115295410157	25.6542148590088	1524.376342773438	80.32908630371097	766.4946289062502	1331.987548828125	76.15116882324222	426.4727172851565	1310.634033203125	191.4224700927735	390.4238281250002	1344.8203125	72.48085784912112	388.8446960449221	1260.37255859375	108.4137420654297	332.8973388671876	1308.814575195313	126.7496490478516	214.6389312744142	1003.399047851563	202.3138122558595	183.3904113769532	1050.968383789063	192.8837127685548	224.8618164062501	962.722778320313	191.5583648681641	62.96246337890628	1030.836303710938	132.8960723876954	66.94963073730472	1028.52392578125	98.02086639404303	102.4783554077149	987.898071289063	250.4498138427736	1364.266845703125	1293.471557617188	251.9540863037111	1130.01220703125	1236.963989257813	263.1407470703126	1143.084594726563	1473.622192382813	261.196990966797	1303.464599609375	1422.485107421875	340.9884033203126	1167.892211914063	1227.439819335938	335.4779052734376	1300.398559570313	1246.954956054688	448.165222167969	1295.0537109375	1313.298950195313	436.5802917480471	1306.86083984375	1355.680297851563	505.4213867187502	1020.580261230469	1323.761352539063	429.0676879882815	990.4733886718755	1298.2119140625	477.9768066406252	991.6787719726567	1290.767211914063	476.3238525390627	783.4968261718755	1397.775634765625	541.6887207031252	787.2819213867192	1349.367797851563	486.1743164062502	697.1712646484377	1416.533325195313	546.5018310546877	710.9786376953127	1333.062133789063	133.9730987548829	1173.546142578125	1239.840698242188	159.1249389648438	1296.517700195313	1260.371215820313	60.8760795593262	1297.031616210938	1344.431518554688	78.71937561035159	1303.523559570313	1392.168090820313	7.529856681823734	998.2532348632817	1386.2587890625	80.83296203613284	981.6296386718755	1347.428833007813	35.28017044067384	974.0399780273442	1351.98681640625	51.60254669189456	799.2144165039067	1494.300048828125	-18.08617591857911	792.123168945313	1450.07763671875	41.58374023437501	712.0722656250002	1529.673950195313	-20.53596878051759	714.0900878906252	1447.692138671875	
147	1.46	366.1053771972657	872.701293945313	1470.684692382813	303.9948120117189	904.7260131835942	1285.187133789063	215.5013275146486	898.395629882813	1278.090698242188	126.3331527709962	862.2747192382817	1448.4951171875	429.1673889160159	786.321411132813	1407.58740234375	378.2577209472657	438.2374267578127	1495.9365234375	260.7189025878907	440.1613769531252	1508.203125	380.6888122558595	374.608123779297	1480.723999023438	327.7059936523439	359.7835388183595	1538.124389648438	326.7804260253907	61.82656097412112	1436.11865234375	237.7195587158204	72.89333343505862	1456.905883789063	281.9714660644532	23.08024406433106	1390.569458007813	255.8196868896486	25.56592750549318	1571.972045898438	318.7691345214845	36.64378356933595	1580.149047851563	363.7778320312501	25.60828590393068	1524.306884765625	82.079460144043	767.8382568359377	1342.849487304688	75.60576629638675	426.9323425292971	1332.41943359375	190.9477539062501	391.2688598632815	1367.28076171875	71.85153961181643	389.9606628417971	1282.848754882813	108.0298004150391	333.4158325195314	1331.181640625	127.0781631469727	219.0822601318361	1024.278686523438	202.3996429443361	186.4305419921876	1071.532958984375	193.5955047607423	228.5728912353517	983.5039062500005	187.4573364257813	65.7377624511719	1051.769409179688	129.0416717529297	71.14196777343753	1049.050659179688	95.7653503417969	108.6138763427735	1008.185668945313	251.5729370117189	1366.046752929688	1303.552734375	254.3368988037111	1131.725952148438	1247.052856445313	263.6137695312501	1144.848876953125	1483.998046875	261.341766357422	1305.113525390625	1432.624145507813	344.0055541992189	1170.102172851563	1238.487548828125	337.5603942871095	1302.466796875	1258.06689453125	449.8105163574221	1297.402099609375	1326.087036132813	437.1694946289065	1309.18212890625	1368.1005859375	507.2829589843752	1022.42236328125	1342.162353515625	431.6010742187502	991.821655273438	1314.855224609375	480.7309875488284	992.6154174804692	1309.06787109375	475.706970214844	786.9620971679692	1421.142822265625	542.4556884765627	789.6438598632817	1374.52099609375	485.5560607910159	701.3701782226565	1442.671142578125	547.8313598632815	713.035827636719	1360.493896484375	136.4141693115235	1175.04248046875	1248.57861328125	160.7916259765626	1298.018432617188	1269.697265625	61.68140411376956	1297.939819335938	1352.937744140625	79.02722167968753	1304.280395507813	1400.89697265625	9.82750225067139	999.0378417968755	1391.832275390625	83.76374053955081	982.967651367188	1354.2158203125	38.13178634643556	975.723022460938	1357.62548828125	50.99850082397464	796.8981933593755	1495.220581054688	-18.29183769226075	791.893920898438	1449.7861328125	40.2279396057129	707.7776489257815	1526.366455078125	-21.44157028198243	714.1035766601565	1444.22216796875	
148	1.47	367.2196655273439	873.801147460938	1481.060546875	305.814178466797	906.4083862304692	1295.721801757813	217.3138732910157	900.2219848632817	1288.10302734375	127.4256439208985	864.6120605468755	1458.35791015625	430.2289733886721	787.3248901367192	1417.703857421875	378.7426757812501	437.7303771972659	1499.671142578125	261.2022705078126	439.5252380371096	1511.427124023438	381.0870666503907	374.1909484863282	1483.794311523438	327.9179992675782	358.9121398925782	1540.853881835938	326.6019287109376	61.67943954467776	1436.259033203125	237.5836334228517	72.85231781005862	1456.881225585938	281.9165039062501	23.18208122253419	1390.519653320313	255.9750976562501	25.58215522766115	1571.933593750001	318.8579101562501	36.65586471557619	1580.094726562501	363.6835327148439	25.50135803222658	1524.260864257813	83.61454772949222	769.4631958007817	1353.624145507813	75.1867599487305	427.9172668457034	1354.017578125	190.5753631591797	392.7652893066409	1389.54443359375	71.44924926757815	391.4688720703127	1305.12646484375	107.7350006103516	334.5180664062501	1353.6328125	127.3603668212891	222.3712768554689	1045.972045898438	202.4258270263673	188.6851196289063	1093.011840820313	194.1754302978517	230.7580718994142	1004.940490722657	183.4021759033204	67.82792663574222	1074.77734375	125.1744461059571	74.79311370849612	1071.82470703125	93.4195251464844	113.5931625366212	1030.428466796875	252.6220092773439	1367.88037109375	1313.5107421875	256.659881591797	1133.488891601563	1257.013305664063	264.0120849609376	1146.643920898438	1494.177978515625	261.3963012695314	1306.80078125	1442.631713867188	347.0251770019532	1172.438110351563	1249.427490234375	339.6035156250001	1304.625854492188	1269.092041015625	451.3461914062502	1299.925659179688	1338.865478515625	437.6213684082034	1311.647705078125	1380.468872070313	509.0827331542971	1024.617431640625	1360.488403320313	434.1245422363284	993.436889648438	1331.372192382813	483.4545898437502	993.8412475585942	1327.341430664063	474.9333496093752	790.9400024414067	1444.57373046875	543.038513183594	792.5239257812505	1399.807983398438	484.7080078125002	706.172790527344	1468.894775390625	548.9749145507815	715.6868286132815	1388.181884765625	138.830062866211	1176.620727539063	1257.140747070313	162.4266510009766	1299.579467773438	1278.86865234375	62.4546928405762	1298.913208007813	1361.220581054688	79.25101470947268	1305.103149414063	1409.409545898438	11.99923324584961	999.9357299804692	1397.04052734375	86.57829284667972	984.3502807617192	1360.853271484375	40.85964584350587	977.4465332031255	1363.05322265625	50.21998596191409	795.1816406250005	1496.185791015625	-18.48480796813966	792.0598144531255	1449.489624023438	38.68452072143556	704.3024902343752	1523.309448242188	-22.25180435180665	714.6324462890627	1440.99560546875	
